<?xml version="1.0" standalone="no"?>
<!DOCTYPE svg PUBLIC "-//W3C//DTD SVG 20010904//EN"
 "http://www.w3.org/TR/2001/REC-SVG-20010904/DTD/svg10.dtd">
<svg version="1.0" xmlns="http://www.w3.org/2000/svg"
 width="512.000000pt" height="512.000000pt" viewBox="0 0 512.000000 512.000000"
 preserveAspectRatio="xMidYMid meet">
<metadata>
Created by potrace 1.16, written by Peter Selinger 2001-2019
</metadata>
<g transform="translate(0.000000,512.000000) scale(0.100000,-0.100000)"
fill="#000000" stroke="none">
<path d="M154 2811 c-52 -24 -111 -83 -135 -135 -27 -60 -26 -176 2 -234 50
-101 131 -151 248 -152 87 0 142 22 198 78 53 53 73 104 73 192 0 89 -20 139
-75 195 -56 55 -106 75 -195 75 -52 0 -88 -6 -116 -19z"/>
<path d="M2444 2811 c-52 -24 -111 -83 -135 -135 -27 -60 -26 -176 2 -234 50
-101 131 -151 248 -152 87 0 142 22 198 78 53 53 73 104 73 192 0 89 -20 139
-75 195 -56 55 -106 75 -195 75 -52 0 -88 -6 -116 -19z"/>
<path d="M4734 2811 c-52 -24 -111 -83 -135 -135 -27 -60 -26 -176 2 -234 50
-101 131 -151 248 -152 87 0 142 22 198 78 53 53 73 104 73 192 0 89 -20 139
-75 195 -56 55 -106 75 -195 75 -52 0 -88 -6 -116 -19z"/>
</g>
</svg>
